# xmcd
#
# Track frame offsets: 
#        150
#        18875
#        38802
#        57562
#        86162
#        110750
#        136562
#        172467
#        207650
#        228795
#        252712
#        270492
#
# Disc length: 4074 seconds
#
# Revision: 5
# Processed by: cddbd v1.5.2PL0 Copyright (c) Steve Scherf et al.
# Submitted via: ExactAudioCopy v1.0b3
#
DISCID=af0fe80c
DTITLE=Des'ree - Mystic Mixes
DYEAR=1999
DGENRE=R&B
TTITLE0=You Gotta Be (1999 Mix)
TTITLE1=Life (Cosmack Mix)
TTITLE2=I Ain't Movin' (C&J Club Mix)
TTITLE3=Mind Adventures (The Master Mix)
TTITLE4=Feel So High (The Elevation Mix)
TTITLE5=You Gotta Be (Blacksmith mix)
TTITLE6=What's Your Sign (Saturn Return Mix)
TTITLE7=Living In The City (Meme's Extended Club Mix)
TTITLE8=I Ain't Movin' (Femi Fem Basic Mixx)
TTITLE9=You Gotta Be (Frankie Foncett Mix)
TTITLE10=Feel So High (The Family Stand Remix)
TTITLE11=Life (Cosmack Extended Mix)
EXTD=
EXTT0=
EXTT1=
EXTT2=
EXTT3=
EXTT4=
EXTT5=
EXTT6=
EXTT7=
EXTT8=
EXTT9=
EXTT10=
EXTT11=
PLAYORDER=
